<?xml version="1.0" encoding="UTF-8"?>
<!--Generator: Apple Native CoreSVG 175.5-->
<!DOCTYPE svg
PUBLIC "-//W3C//DTD SVG 1.1//EN"
       "http://www.w3.org/Graphics/SVG/1.1/DTD/svg11.dtd">
<svg version="1.1" xmlns="http://www.w3.org/2000/svg" xmlns:xlink="http://www.w3.org/1999/xlink" width="501.553" height="501.725">
 <g>
  <rect height="501.725" opacity="0" width="501.553" x="0" y="0"/>
  <path d="M250.738 501.475C388.223 501.475 501.553 387.973 501.553 250.738C501.553 113.33 388.05 0 250.565 0C113.33 0 0 113.33 0 250.738C0 387.973 113.503 501.475 250.738 501.475Z" fill="#ffffff" fill-opacity="0.2125"/>
  <path d="M133.155 250.91C133.155 241.01 140.063 233.947 149.963 233.947L234.102 233.947L234.102 149.808C234.102 139.985 240.993 132.827 250.488 132.827C260.388 132.827 267.373 139.908 267.373 149.808L267.373 233.947L351.763 233.947C361.49 233.947 368.57 241.01 368.57 250.91C368.57 260.405 361.335 267.123 351.763 267.123L267.373 267.123L267.373 351.435C267.373 361.335 260.388 368.243 250.488 368.243C240.993 368.243 234.102 361.085 234.102 351.435L234.102 267.123L149.963 267.123C140.14 267.123 133.155 260.405 133.155 250.91Z" fill="#ffffff" fill-opacity="0.85"/>
 </g>
</svg>
